<?xml version="1.0" standalone="no"?>
<!DOCTYPE svg PUBLIC "-//W3C//DTD SVG 20010904//EN"
 "http://www.w3.org/TR/2001/REC-SVG-20010904/DTD/svg10.dtd">
<svg version="1.0" xmlns="http://www.w3.org/2000/svg"
 width="600.000000pt" height="600.000000pt" viewBox="0 0 600.000000 600.000000"
 preserveAspectRatio="xMidYMid meet">
<metadata>
Created by potrace 1.11, written by Peter Selinger 2001-2013
</metadata>
<g transform="translate(0.000000,600.000000) scale(0.100000,-0.100000)"
fill="#000000" stroke="none">
<path d="M0 3000 l0 -3000 3000 0 3000 0 0 3000 0 3000 -3000 0 -3000 0 0
-3000z m2960 2651 c0 -5 223 -442 495 -972 272 -530 495 -972 495 -981 0 -9
-33 -81 -74 -160 -245 -472 -556 -1084 -556 -1092 0 -18 275 -545 281 -538 4
4 176 336 384 737 208 402 416 803 463 893 l86 162 123 0 124 0 -34 -62 c-19
-35 -283 -544 -587 -1133 -304 -588 -556 -1073 -559 -1077 -4 -4 -96 168 -206
382 -110 214 -202 389 -205 389 -3 0 -31 -51 -62 -112 l-57 -112 261 -508
c143 -279 263 -505 267 -502 4 2 324 618 712 1369 l704 1365 163 1 162 0 0
-98 0 -98 -58 -12 c-67 -14 -139 -56 -170 -100 -12 -16 -263 -497 -558 -1068
-295 -572 -630 -1219 -744 -1439 -113 -220 -210 -399 -215 -398 -4 1 -149 278
-322 615 -174 337 -318 616 -322 620 -3 3 -150 -275 -326 -618 -176 -343 -322
-624 -325 -624 -5 0 -101 186 -1049 2030 -373 724 -468 901 -498 928 -37 33
-114 62 -165 62 l-28 0 0 100 0 100 163 0 162 0 346 -673 c191 -369 508 -986
705 -1369 198 -384 361 -698 364 -698 3 0 321 616 708 1370 l703 1369 -222
433 c-122 238 -239 466 -259 507 l-38 73 -60 -117 -60 -117 200 -389 200 -389
-45 -88 c-25 -48 -267 -521 -540 -1052 -272 -531 -514 -1004 -538 -1052 -24
-48 -46 -87 -49 -87 -3 0 -21 32 -41 72 -20 40 -280 545 -577 1123 -298 577
-544 1058 -548 1067 -6 16 4 17 126 15 l133 -3 77 -170 c42 -93 244 -494 448
-890 205 -395 372 -723 372 -727 0 -21 18 -2 40 45 14 29 76 151 139 273 l113
221 -291 567 c-161 312 -306 593 -324 625 l-32 59 67 128 c37 71 265 513 505
981 241 469 441 853 446 853 4 0 7 -4 7 -9z"/>
<path d="M2570 4448 c-206 -402 -376 -736 -378 -743 -2 -10 498 -998 513
-1013 4 -4 115 214 115 227 0 5 -88 180 -195 389 -107 209 -195 384 -195 391
0 6 144 291 319 633 l320 622 -56 106 c-31 58 -59 108 -62 112 -3 4 -175 -322
-381 -724z"/>
<path d="M2808 3964 l-137 -266 136 -264 c75 -145 139 -264 142 -264 3 0 67
119 141 265 l135 264 -135 265 c-74 146 -137 266 -140 266 -3 0 -67 -120 -142
-266z"/>
</g>
</svg>
