<?xml version="1.0" encoding="UTF-8"?>
<svg width="127px" height="48px" viewBox="0 0 127 48" version="1.1" xmlns="http://www.w3.org/2000/svg" xmlns:xlink="http://www.w3.org/1999/xlink">
    <title>FCA517DA-BDEC-4B4E-AE57-74CD4B454AF5</title>
    <defs>
        <filter color-interpolation-filters="auto" id="filter-1">
            <feColorMatrix in="SourceGraphic" type="matrix" values="0 0 0 0 1.000000 0 0 0 0 1.000000 0 0 0 0 1.000000 0 0 0 1.000000 0"></feColorMatrix>
        </filter>
        <polygon id="path-2" points="0 0 12.2975207 0 12.2975207 13.4876033 0 13.4876033"></polygon>
        <polygon id="path-4" points="0 0 43.8347107 0 43.8347107 47.8016529 0 47.8016529"></polygon>
    </defs>
    <g id="Pages" stroke="none" stroke-width="1" fill="none" fill-rule="evenodd">
        <g id="Logos/WhiteGold2LineWhite" transform="translate(-39.000000, -55.000000)" filter="url(#filter-1)">
            <g transform="translate(39.454545, 55.000000)" id="Group-23">
                <path d="M64.9003153,18.9870458 C64.5117579,19.0500589 64.1798859,19.0830003 63.8593759,19.1612363 C63.4492181,19.2611837 63.2805352,19.500134 63.3331003,19.9140235 C63.3660628,20.1736871 63.4418515,20.432602 63.5319988,20.6797877 C64.3516902,22.9307875 65.1787482,25.1791669 66.0044328,27.4280455 C66.030528,27.4991691 66.0638651,27.5675476 66.1159308,27.6882082 C66.4516734,26.7388952 66.7694364,25.8378714 67.0888227,24.9373467 C67.5833844,23.5430744 68.0830653,22.1506738 68.5707598,20.7541555 C68.6650274,20.4846345 68.7304529,20.2022613 68.780396,19.9207615 C68.8431995,19.5673895 68.668024,19.2687951 68.3210442,19.1794539 C67.9706932,19.0892392 67.6066079,19.0513066 67.2189245,18.9855485 L67.2189245,18.0495868 L71.6033058,18.0495868 L71.6033058,18.9890423 C71.5859506,19.0022688 71.5700936,19.0249784 71.5524887,19.0264758 C70.8555325,19.083749 70.5195402,19.4859093 70.2839335,20.1323855 C68.9082504,23.9080508 67.4902405,27.6683684 66.0953292,31.4370462 C66.013922,31.6569055 65.917282,31.7548564 65.6750579,31.7323963 C65.4230949,31.7090628 65.1671364,31.7271556 64.9034368,31.7271556 C63.8669923,29.0467939 62.8361663,26.3811559 61.781992,23.6556244 C61.4247739,24.5622632 61.0891561,25.4131262 60.7542875,26.2642387 C60.075186,27.9904211 59.3922139,29.7149814 58.7236004,31.445032 C58.6376983,31.6673868 58.5275737,31.7370131 58.2937151,31.7330202 C57.5239668,31.7200433 57.5247159,31.7295264 57.2337973,31.0036913 C55.7588522,27.3243548 54.2724202,23.649635 52.8194501,19.9618136 C52.5823452,19.3597585 52.181302,19.096102 51.5702479,19.0303439 L51.5702479,18.0514585 L57.5359531,18.0514585 L57.5359531,19.0015201 C57.2497791,19.0359589 56.9765902,19.0605402 56.7062731,19.1029648 C56.0446517,19.2070299 55.8008044,19.5391896 56.0109401,20.1744357 C56.3399404,21.1692928 56.7227544,22.1465561 57.0878385,23.1294345 C57.6143638,24.5472898 58.1452592,25.9635231 58.6751556,27.3801306 C58.7116141,27.4775825 58.7530669,27.5731626 58.8209895,27.740615 C58.9881741,27.3188645 59.1312611,26.9649934 59.269229,26.6092506 C59.8405782,25.1373662 60.4065586,23.6634854 60.9848999,22.1943462 C61.0670563,21.985717 61.0819144,21.8082823 60.9918919,21.5976566 C60.7927437,21.1308611 60.5822335,20.6636913 60.4426425,20.17768 C60.2469903,19.4968898 59.875913,19.0615385 59.1136562,19.0429465 L59.1136562,18.051708 L64.9003153,18.051708 L64.9003153,18.9870458 Z" id="Fill-1" fill="#212322"></path>
                <path d="M84.3099922,25.2116087 L77.7343692,25.2116087 C77.726531,25.3241299 77.7130941,25.4296807 77.7128452,25.535356 C77.7104813,26.772342 77.7074953,28.009328 77.7101081,29.2461895 C77.7119743,30.095077 78.0060932,30.4126008 78.8598343,30.5078206 C79.0462092,30.5286071 79.2320864,30.5556172 79.4448373,30.5832496 L79.4448373,31.5371901 L73.1900826,31.5371901 L73.1900826,30.5955722 C73.5154299,30.5455351 73.8397819,30.5029662 74.1611478,30.4445897 C74.5988426,30.3654265 74.8219201,30.0732947 74.8934591,29.6545766 C74.9212039,29.4923918 74.9301618,29.3253526 74.9302862,29.1604294 C74.9322769,26.266868 74.9261805,23.3731821 74.9340187,20.4796207 C74.9370047,19.3519197 74.5317825,19.124139 73.7307936,19.0615304 C73.5568604,19.0479632 73.383798,19.0248117 73.1930686,19.0041496 L73.1930686,18.050956 L79.4526755,18.050956 L79.4526755,18.9958101 C79.2065811,19.0273011 78.9589937,19.0610326 78.7109086,19.0906565 C78.0868391,19.1648408 77.7877435,19.4264774 77.7408388,20.057044 C77.6944317,20.6831297 77.7157068,21.3143187 77.7127208,21.9433916 C77.7091127,22.6264847 77.7118499,23.3095778 77.7118499,24.0209257 L84.3238023,24.0209257 L84.3238023,23.6659363 C84.3238023,22.6166516 84.322807,21.5674913 84.3240511,20.5182065 C84.3254197,19.4290913 84.1149082,19.1858763 83.0384629,19.0469674 C82.907453,19.029915 82.774577,19.025434 82.6132097,19.0128625 L82.6132097,18.0495868 L88.8489288,18.0495868 L88.8489288,18.9973038 C88.6273443,19.0263053 88.4113585,19.0543112 88.1953727,19.0826904 C87.390527,19.1881167 87.1084764,19.5090012 87.1072322,20.333866 C87.1052416,21.7143663 87.1074811,23.0948665 87.1076055,24.4753668 C87.1077299,26.0436927 87.1081031,27.6118942 87.1071078,29.1802202 C87.1067346,30.0959483 87.3767168,30.3999048 88.2930391,30.5115547 C88.4769256,30.5339593 88.6604389,30.5615918 88.8595041,30.5889752 L88.8595041,31.5368167 L82.6082331,31.5368167 L82.6082331,30.5844943 C82.9022276,30.5467798 83.1984615,30.5274869 83.4863597,30.4674922 C84.0048002,30.3595764 84.2875973,30.1125029 84.2987947,29.6039172 C84.3306452,28.1498549 84.3099922,26.694797 84.3099922,25.2116087" id="Fill-3" fill="#212322"></path>
                <path d="M102.744801,35.4243684 C102.734799,35.6080249 102.723796,35.7152922 102.723796,35.8224355 C102.722796,38.9582377 102.722546,42.0940398 102.724671,45.2298419 C102.724796,45.3719556 102.747801,45.5140693 102.760929,45.656183 C102.807439,46.1610215 103.080873,46.4978285 103.586982,46.5382553 C104.336018,46.5979034 105.091431,46.6303936 105.841843,46.607452 C107.601722,46.5536323 109.05541,45.3860926 109.496005,43.7094981 C109.888964,42.214576 109.922972,40.706013 109.558643,39.2058826 C109.201066,37.7337781 108.466908,36.5120466 106.992591,35.8827037 C106.62076,35.7239728 106.213173,35.595376 105.813212,35.5638779 C104.800744,35.4841404 103.783274,35.4673993 102.744801,35.4243684 M98.1818182,35.2941595 L98.1818182,34.3440066 C98.2680868,34.3342099 98.3516047,34.3164767 98.4349977,34.3164767 C101.034182,34.3188329 103.633617,34.3012237 106.232427,34.335822 C107.508827,34.3528112 108.731465,34.6477033 109.859958,35.2825027 C111.537444,36.2262071 112.456017,37.688887 112.750831,39.5276846 C112.996759,41.0617933 112.832973,42.5785409 112.180833,44.0120788 C111.233129,46.095173 109.553517,47.2472117 107.328288,47.6555716 C106.764541,47.7589946 106.180791,47.7893767 105.605917,47.792973 C103.251285,47.80773 100.896403,47.7991734 98.5415206,47.7992974 C98.4322471,47.7992974 98.3229736,47.7991734 98.1935707,47.7991734 L98.1935707,46.8312873 C98.5086386,46.7878843 98.8182052,46.7658108 99.1176447,46.6993423 C99.6313803,46.5852545 99.8473018,46.3306651 99.9090651,45.8142938 C99.9246935,45.6835889 99.927069,45.5508999 99.927069,45.4190789 C99.9279442,42.5470427 99.9265689,39.6748826 99.9279442,36.8028465 C99.9284443,35.7180204 99.7168988,35.4733517 98.6371662,35.3337182 C98.4960108,35.3154889 98.3533551,35.3086685 98.1818182,35.2941595" id="Fill-5" fill="#212322"></path>
                <path d="M70.9117519,40.9498552 C70.929142,42.2217517 71.1687517,43.6649608 71.9919211,44.9557814 C72.8631615,46.3218002 74.293367,46.9423104 75.8614507,46.6210993 C77.0351533,46.3808134 77.7157245,45.5715605 78.1349484,44.5151743 C78.7808637,42.8874556 78.8186249,41.2043341 78.4977789,39.5056502 C78.2596597,38.2443362 77.7696336,37.1067757 76.7827495,36.2299191 C75.5119111,35.1008246 72.8057744,34.9283915 71.7021287,37.0773936 C71.1104951,38.2297696 70.9218133,39.4519905 70.9117519,40.9498552 M67.8347107,41.2821469 C67.8888683,39.2747018 68.4816198,37.4939721 69.9280974,36.065454 C71.102918,34.9052344 72.5430607,34.3066363 74.1813256,34.1577338 C75.4191229,34.0453099 76.6302141,34.1432917 77.7798192,34.636687 C79.8642624,35.5312226 81.1273995,37.1428808 81.5505982,39.3375746 C82.0229859,41.7874942 81.5231468,44.0431932 79.7775607,45.9118202 C78.588207,47.1849617 77.0757715,47.8110745 75.3536619,47.9620935 C74.0803392,48.0737704 72.8357101,47.9523824 71.6683424,47.413918 C69.6643901,46.4897513 68.4833588,44.8924107 68.0182998,42.7556096 C67.9134627,42.2740419 67.8935884,41.7737992 67.8347107,41.2821469" id="Fill-7" fill="#212322"></path>
                <g id="Group-11" transform="translate(113.851240, 18.049587)">
                    <mask id="mask-3" fill="white">
                        <use xlink:href="#path-2"></use>
                    </mask>
                    <g id="Clip-10"></g>
                    <path d="M0,0.948404469 L0,0 L11.6157295,0 L11.6157295,3.42339044 C11.318907,3.42339044 11.0015708,3.43483949 10.686361,3.41393253 C10.6208174,3.40970136 10.548019,3.29409084 10.5047402,3.21556529 C10.3081093,2.85828026 10.1399975,2.48419499 9.92598006,2.13811012 C9.55173103,1.53267937 8.98597956,1.19182123 8.27563187,1.17676324 C7.04618876,1.15075399 5.81574498,1.16954536 4.56391197,1.16954536 L4.56391197,5.95537277 C4.59530786,5.96582625 4.63520942,5.99059104 4.6748608,5.99071549 C5.54156253,5.99357775 6.40838935,6.00751573 7.27459074,5.98984437 C8.04272689,5.97416415 8.37332187,5.70747595 8.60197403,4.97834568 C8.66401531,4.78022733 8.71079644,4.57738003 8.76508256,4.37415939 L9.74373379,4.37415939 L9.74373379,8.76997241 L8.77333806,8.76997241 C8.69878845,8.52070668 8.62849167,8.26783201 8.54756282,8.01856627 C8.37594862,7.49066551 8.01720991,7.17345215 7.45145844,7.1636209 C6.49807403,7.14706956 5.54431436,7.15914084 4.56015948,7.15914084 C4.55390531,7.27388023 4.54327324,7.3796595 4.54314816,7.48556321 C4.54202241,8.65585525 4.54114682,9.82627174 4.54277291,10.9965638 C4.54402374,11.8698027 4.93403326,12.2853286 5.81136707,12.3059867 C6.63228834,12.3254003 7.45433535,12.3210447 8.27563187,12.3118356 C9.03964026,12.3033733 9.63841371,11.9505683 10.0944672,11.36256 C10.4329424,10.9261272 10.7504037,10.4726453 11.0567325,10.0131899 C11.1670559,9.84742759 11.2761285,9.76255528 11.4815152,9.77636881 C11.7344335,9.79341794 11.989228,9.78047554 12.2975582,9.78047554 C12.0927969,11.0343954 11.8934143,12.2553371 11.6922804,13.4876033 L0.0162608205,13.4876033 L0.0162608205,12.5289942 C0.307204424,12.4915359 0.605152688,12.472869 0.893969876,12.4118904 C1.49199282,12.2858264 1.74090846,11.9529328 1.7427847,11.2876434 C1.7472877,9.74189721 1.74391045,8.196151 1.74378537,6.65040478 C1.74378537,5.22611805 1.74341012,3.80183133 1.74403554,2.3775446 C1.74441079,1.41221545 1.52789171,1.16046079 0.559247141,1.01299205 C0.385506528,0.986485006 0.21001475,0.972298139 0,0.948404469" id="Fill-9" fill="#212322" mask="url(#mask-3)"></path>
                </g>
                <path d="M59.6064875,42.302222 L59.6064875,41.3514299 L65.8512397,41.3514299 L65.8512397,42.2968679 C65.6352481,42.3262533 65.4208712,42.3597477 65.2053764,42.3841525 C64.4356814,42.4708145 64.1115077,42.8210736 64.1064153,43.6005339 C64.1005777,44.5175826 64.1002051,45.4346314 64.1107625,46.3515556 C64.1129982,46.5531445 64.0536284,46.6705616 63.8734077,46.7689279 C62.1944118,47.6852296 60.3877336,48.0698547 58.4941123,47.9896674 C57.7095127,47.956422 56.907897,47.84411 56.1550938,47.6260852 C53.3545314,46.8148738 51.5980319,44.404399 51.5707069,41.4882712 C51.5509584,39.3783743 52.1670125,37.5284635 53.7132339,36.0532166 C54.9139185,34.9078084 56.3722032,34.3174855 58.0161735,34.1648309 C59.6595228,34.0123007 61.2474769,34.2035548 62.7604115,34.8989679 C63.6867284,35.3248072 63.6944291,35.3197021 63.7080916,36.3215452 C63.7177795,37.0260478 63.7099547,37.730924 63.7099547,38.4568431 L62.5594487,38.4568431 C62.3284284,37.981945 62.1297012,37.5011949 61.8707349,37.0556822 C61.2302125,35.9538541 60.237322,35.4112202 58.9809938,35.3712511 C58.5117493,35.3564339 58.0290908,35.3824574 57.5706521,35.4774619 C56.1257815,35.7772926 55.3809273,36.8306847 54.983473,38.1326075 C54.3751195,40.1262079 54.4497664,42.1300186 55.2300189,44.067214 C55.7957702,45.4723593 56.7985971,46.4420776 58.3563695,46.6629662 C59.269645,46.7924612 60.1827962,46.76071 61.027014,46.2925358 C61.2410183,46.1738735 61.3414997,46.0334212 61.33442,45.7718164 C61.3151683,45.0541153 61.3304455,44.3356671 61.328955,43.6174679 C61.3272162,42.8009023 61.0340936,42.475048 60.2278824,42.3831564 C60.0312668,42.3608683 59.8353963,42.33223 59.6064875,42.302222" id="Fill-12" fill="#212322"></path>
                <path d="M98.8476487,18.0495868 L111.77317,18.0495868 C111.870528,19.4044325 111.966639,20.7433492 112.066116,22.128062 C111.715578,22.128062 111.397202,22.1415022 111.081693,22.1186041 C111.002909,22.1128796 110.907297,22.0032425 110.863043,21.918619 C110.632675,21.4795729 110.412405,21.0349266 110.196124,20.5886625 C109.761691,19.6921521 109.092403,19.1427222 108.053754,19.1346332 C107.62356,19.1312731 107.193366,19.1340109 106.724528,19.1340109 C106.719417,19.247257 106.709693,19.3633653 106.709693,19.4794736 C106.708945,22.7144525 106.708571,25.9494314 106.709319,29.1844103 C106.709444,30.0798007 107.011989,30.4100809 107.913763,30.5106334 C108.120945,30.5336559 108.327503,30.5621541 108.551887,30.5904034 L108.551887,31.5371901 L102.079652,31.5371901 L102.079652,30.5882878 C102.315754,30.5599141 102.543753,30.5304203 102.772376,30.5055311 C103.575297,30.4186677 103.914366,30.0546625 103.918854,29.2542246 C103.92384,28.3710299 103.919726,27.4877108 103.919726,26.6043917 L103.919726,19.5161852 L103.919726,19.1124817 C102.86001,19.1499401 101.766138,18.9152345 100.957607,19.8321541 C100.713153,20.1094202 100.535765,20.4479139 100.343418,20.7677406 C100.213026,20.9844014 100.107939,21.2163692 99.995498,21.4434835 C99.6217738,22.1989963 99.4961187,22.258855 98.5785124,22.0816436 C98.6675181,20.7485759 98.7567731,19.4097837 98.8476487,18.0495868" id="Fill-14" fill="#212322"></path>
                <path d="M96,43.6300676 C95.7668171,45.0503326 95.5421654,46.418092 95.3150408,47.8016529 L83.9008264,47.8016529 L83.9008264,46.8505792 C84.1027287,46.8227089 84.3050018,46.7893641 84.5085114,46.7675904 C85.3303388,46.6797493 85.6203955,46.3578723 85.6207664,45.5176577 C85.6217555,43.2334136 85.6207664,40.9489207 85.6206428,38.6645522 C85.6206428,37.9914349 85.6174281,37.3181932 85.6217555,36.6450759 C85.6271956,35.7328216 85.2749485,35.3883 84.4950347,35.339527 C84.3101947,35.3278314 84.1267146,35.2952331 83.9117067,35.2684826 L83.9117067,34.3140496 L90.1037872,34.3140496 L90.1037872,35.2657454 C89.8555204,35.2974727 89.6291377,35.3278314 89.4022604,35.3549552 C88.6998681,35.4389393 88.3954693,35.772263 88.3889165,36.4925358 C88.3817454,37.298037 88.3875564,38.1036626 88.3875564,38.9092882 C88.3875564,41.0392503 88.3869382,43.169088 88.3878037,45.2989257 C88.3881746,46.1961251 88.7672513,46.603106 89.6565855,46.6246308 C90.4021277,46.6426718 91.1482882,46.6349577 91.8942013,46.6323449 C92.6540856,46.629732 93.2093477,46.2394236 93.6174795,45.6382216 C94.0064473,45.065512 94.3595598,44.4672961 94.7119305,43.8705733 C94.8135617,43.6982502 94.9180365,43.6126486 95.1234006,43.6257128 C95.3949115,43.6431318 95.6684006,43.6300676 96,43.6300676" id="Fill-16" fill="#212322"></path>
                <path d="M90.6446281,19.0094063 L90.6446281,18.0495868 L96.9900933,18.0495868 L96.9900933,19.0024402 C96.7467949,19.033041 96.5256031,19.0612783 96.3044112,19.0886449 C95.5232287,19.1852985 95.22978,19.5082238 95.225485,20.2906583 C95.2213164,21.0187329 95.2256114,21.7469318 95.2256114,22.4750064 C95.2257377,24.7145852 95.2259903,26.954164 95.2252324,29.1936184 C95.2249797,30.0964657 95.5002379,30.4027223 96.4062277,30.50572 C96.5949545,30.5272401 96.7829233,30.554731 96.9917355,30.5823463 L96.9917355,31.5371901 L90.645386,31.5371901 L90.645386,30.5801073 C90.9018221,30.550626 91.1544684,30.5231351 91.4066094,30.4922855 C92.0439098,30.4145396 92.3699499,30.0780555 92.3943303,29.4450175 C92.4103733,29.0263093 92.3990042,28.6066059 92.3990042,28.1874002 C92.3991305,25.6169349 92.3892773,23.0463453 92.4035519,20.4760045 C92.4099943,19.3282265 91.9714003,19.1283264 91.1803646,19.0638906 C91.0141234,19.0504561 90.8483874,19.0303044 90.6446281,19.0094063" id="Fill-18" fill="#212322"></path>
                <g id="Group-22">
                    <mask id="mask-5" fill="white">
                        <use xlink:href="#path-4"></use>
                    </mask>
                    <g id="Clip-21"></g>
                    <path d="M21.8963443,8.71877241 L20.780025,10.8984811 L17.1002367,18.0841066 L20.780025,25.2699813 L19.66383,27.4496899 L14.8677224,18.0841066 L19.66383,8.71864782 L20.780025,6.53893914 L21.8963443,4.35923047 L23.0126637,6.53893914 L21.8963443,8.71877241 Z M24.4599377,18.0841066 L21.8963443,23.0902726 L19.332751,18.0841066 L21.8963443,13.0780652 L24.4599377,18.0841066 Z M43.1596229,18.0841066 L40.9252437,18.0841066 L40.9243734,18.0841066 L27.8573826,43.4495864 L23.0125393,33.988816 L24.1287343,31.8092319 L27.851042,39.0779592 L38.6928537,18.0841066 L38.2992389,18.0841066 L36.4824693,18.0841066 L35.1472126,20.6196454 L27.8585016,34.7329943 L25.2450537,29.6295232 L30.2778772,19.8018341 L30.2788718,19.8032046 C30.3171641,19.7212242 30.356078,19.6454732 30.3949919,19.5729616 L30.4081704,19.5476698 C30.7893526,18.8500882 31.1353507,18.0843558 31.1353507,18.0843558 C31.1353507,18.0843558 30.8293855,17.4797187 30.601621,16.9953113 L30.6007507,16.9969309 L25.2450537,6.53893914 L24.1287343,4.35935506 L23.0125393,2.17952179 L21.89622,-6.22951893e-05 L20.780025,2.17952179 L19.66383,4.35935506 L18.5475107,6.53893914 L13.1926839,16.9953113 L13.1926839,16.9954359 L12.5982834,18.0767558 L13.5153088,19.8028309 L13.5154331,19.8032046 L18.5475107,29.629274 L15.9361764,34.7288828 L8.73237964,20.7117177 C7.72894793,18.4510252 7.56968687,18.0841066 7.56968687,18.0841066 L5.1478247,18.0841066 L15.9392845,39.0821952 L19.6639544,31.8091073 L20.780025,29.6295232 L21.8963443,27.4498145 L23.0126637,25.2701059 L26.692452,18.0841066 L23.0125393,10.8984811 L24.1287343,8.71864782 L28.9249663,18.0841066 L24.1287343,27.4496899 L23.0125393,29.6293986 L21.89622,31.8091073 L20.780025,33.9886914 L15.936425,43.446347 L2.91580768,18.0841066 L2.9154347,18.0841066 L2.90934275,18.0841066 L0.682298748,18.0841066 L0,18.0841066 L0,19.9186999 L0.296640819,19.9186999 C1.09269747,19.9186999 1.82485077,20.3542679 2.20677893,21.0543412 C2.20914112,21.0588265 2.21162763,21.0633117 2.21411414,21.067797 L15.9387872,47.8016529 L21.8963443,36.1684001 L27.852161,47.7984135 L41.4684221,21.3671877 L41.4686708,21.3685581 L41.4773735,21.3512401 C41.9203456,20.4726287 42.8189708,19.9186999 43.8012672,19.9186999 L43.8347107,19.9186999 L43.8347107,18.0841066 L43.1596229,18.0841066 Z" id="Fill-20" fill="#212322" mask="url(#mask-5)"></path>
                </g>
            </g>
        </g>
    </g>
</svg>