<?xml version="1.0" encoding="utf-8"?>
<svg version="1.1" xmlns="http://www.w3.org/2000/svg" xmlns:xlink="http://www.w3.org/1999/xlink" x="0px" y="0px" viewBox="0 0 127 48" style="enable-background:new 0 0 127 48;" xml:space="preserve">
<style type="text/css">
	.st0{fill:#212322;}
</style>
<g>
	<path fill="st0" d="M69.3,19.1c-0.4,0.1-0.7,0.1-1,0.2c-0.4,0.1-0.5,0.3-0.5,0.7c0,0.2,0.1,0.5,0.2,0.7c0.8,2.1,1.6,4.3,2.3,6.4
		c0,0.1,0.1,0.1,0.1,0.2c0.3-0.9,0.6-1.8,0.9-2.6c0.5-1.3,0.9-2.6,1.4-4c0.1-0.3,0.2-0.5,0.2-0.8c0.1-0.3-0.1-0.6-0.4-0.7
		c-0.3-0.1-0.7-0.1-1-0.2v-0.9h4.1V19l0,0c-0.7,0.1-1,0.4-1.2,1c-1.3,3.6-2.6,7.1-4,10.7C70.3,30.9,70.2,31,70,31
		c-0.2,0-0.5,0-0.7,0c-1-2.5-2-5.1-3-7.6c-0.3,0.9-0.7,1.7-1,2.5c-0.6,1.6-1.3,3.3-1.9,4.9c-0.1,0.2-0.2,0.3-0.4,0.3
		c-0.7,0-0.7,0-1-0.7c-1.4-3.5-2.8-7-4.2-10.5c-0.2-0.6-0.6-0.8-1.2-0.9v-0.9h5.6V19c-0.3,0-0.5,0.1-0.8,0.1c-0.6,0.1-0.9,0.4-0.7,1
		c0.3,0.9,0.7,1.9,1,2.8c0.5,1.3,1,2.7,1.5,4c0,0.1,0.1,0.2,0.1,0.3c0.2-0.4,0.3-0.7,0.4-1.1c0.5-1.4,1.1-2.8,1.6-4.2
		c0.1-0.2,0.1-0.4,0-0.6c-0.2-0.4-0.4-0.9-0.5-1.3c-0.2-0.6-0.5-1.1-1.3-1.1V18H69v1.1H69.3z"/>
	<path class="st0" d="M87.3,25h-6.2c0,0.1,0,0.2,0,0.3c0,1.2,0,2.3,0,3.5c0,0.8,0.3,1.1,1.1,1.2c0.2,0,0.4,0,0.6,0.1V31h-5.9v-0.9
		c0.3,0,0.6-0.1,0.9-0.1c0.4-0.1,0.6-0.4,0.7-0.8c0-0.2,0-0.3,0-0.5c0-2.7,0-5.5,0-8.2c0-1.1-0.4-1.3-1.1-1.3c-0.2,0-0.3,0-0.5-0.1
		v-0.9h5.9v0.9c-0.2,0-0.5,0.1-0.7,0.1c-0.6,0.1-0.9,0.3-0.9,0.9c0,0.6,0,1.2,0,1.8c0,0.6,0,1.3,0,2h6.3v-0.3c0-1,0-2,0-3
		s-0.2-1.3-1.2-1.4c-0.1,0-0.3,0-0.4,0v-0.9h5.9v0.9c-0.2,0-0.4,0.1-0.6,0.1c-0.8,0.1-1,0.4-1,1.2c0,1.3,0,2.6,0,3.9
		c0,1.5,0,3,0,4.5c0,0.9,0.3,1.2,1.1,1.3c0.2,0,0.3,0,0.5,0.1v0.9h-5.9v-0.9c0.3,0,0.6-0.1,0.8-0.1c0.5-0.1,0.8-0.3,0.8-0.8
		C87.3,27.8,87.3,26.4,87.3,25"/>
	<path class="st0" d="M99.9,35.4c0,0.2,0,0.3,0,0.4c0,3,0,6,0,9c0,0.1,0,0.3,0,0.4c0,0.5,0.3,0.8,0.8,0.8c0.7,0.1,1.4,0.1,2.1,0.1
		c1.7-0.1,3-1.2,3.5-2.8c0.4-1.4,0.4-2.9,0.1-4.3c-0.3-1.4-1-2.6-2.4-3.2c-0.4-0.2-0.7-0.3-1.1-0.3C101.9,35.5,100.9,35.5,99.9,35.4
		 M95.6,35.3v-0.9c0.1,0,0.2,0,0.2,0c2.5,0,4.9,0,7.4,0c1.2,0,2.4,0.3,3.4,0.9c1.6,0.9,2.5,2.3,2.7,4c0.2,1.5,0.1,2.9-0.5,4.3
		c-0.9,2-2.5,3.1-4.6,3.5c-0.5,0.1-1.1,0.1-1.6,0.1c-2.2,0-4.5,0-6.7,0h-0.3v-0.9c0.3,0,0.6-0.1,0.9-0.1c0.5-0.1,0.7-0.4,0.7-0.8
		c0-0.1,0-0.3,0-0.4c0-2.7,0-5.5,0-8.2c0-1-0.2-1.3-1.2-1.4C95.9,35.3,95.8,35.3,95.6,35.3"/>
	<path class="st0" d="M73.4,40.7c0,1.2,0.2,2.6,1,3.8c0.8,1.3,2.2,1.9,3.7,1.6c1.1-0.2,1.8-1,2.2-2c0.6-1.5,0.7-3.1,0.3-4.8
		c-0.2-1.2-0.7-2.3-1.6-3.1c-1.2-1.1-3.8-1.2-4.8,0.8C73.6,38.1,73.4,39.3,73.4,40.7 M70.6,42.1c-0.1-0.9-0.1-1.9,0.1-2.8
		c0.3-1.2,0.8-2.3,1.8-3.2c1.1-1.1,2.5-1.7,4-1.8c1.2-0.1,2.3,0,3.4,0.5c2,0.8,3.2,2.4,3.6,4.5c0.4,2.3,0,4.5-1.7,6.2
		c-1.1,1.2-2.6,1.8-4.2,1.9c-1.2,0.1-2.4,0-3.5-0.5c-1.9-0.9-3-2.4-3.5-4.4C70.6,42.3,70.6,42.2,70.6,42.1"/>
	<path class="st0" d="M113.3,19.1v-0.9h11v3.3c-0.3,0-0.6,0-0.9,0c-0.1,0-0.1-0.1-0.2-0.2c-0.2-0.3-0.3-0.7-0.5-1
		c-0.4-0.6-0.9-0.9-1.6-0.9c-1.2,0-2.3,0-3.5,0v4.5h0.1c0.8,0,1.6,0,2.5,0c0.7,0,1-0.3,1.3-1c0.1-0.2,0.1-0.4,0.2-0.6h0.9v4.2h-0.9
		c-0.1-0.2-0.1-0.5-0.2-0.7c-0.2-0.5-0.5-0.8-1-0.8c-0.9,0-1.8,0-2.7,0c0,0.1,0,0.2,0,0.3c0,1.1,0,2.2,0,3.3c0,0.8,0.4,1.2,1.2,1.2
		c0.8,0,1.6,0,2.3,0c0.7,0,1.3-0.3,1.7-0.9c0.3-0.4,0.6-0.8,0.9-1.3c0.1-0.2,0.2-0.2,0.4-0.2c0.2,0,0.5,0,0.8,0
		c-0.2,1.2-0.4,2.4-0.6,3.5h-11V30c0.3,0,0.6-0.1,0.8-0.1c0.6-0.1,0.8-0.4,0.8-1.1c0-1.5,0-2.9,0-4.4c0-1.4,0-2.7,0-4.1
		c0-0.9-0.2-1.2-1.1-1.3C113.7,19.1,113.5,19.1,113.3,19.1"/>
	<path class="st0" d="M64.3,42v-0.9h6.5c0,0.3-0.1,0.6-0.1,0.9c-0.2,0-0.9,0.1-1.1,0.1c-0.7,0.1-1,0.4-1,1.2c0,0.9,0,1.7,0,2.6
		c0,0.2-0.1,0.3-0.2,0.4c-1.6,0.9-3.3,1.2-5.1,1.2c-0.7,0-1.5-0.1-2.2-0.3c-2.7-0.8-4.3-3.1-4.4-5.8c0-2,0.6-3.8,2-5.2
		c1.1-1.1,2.5-1.6,4.1-1.8c1.6-0.1,3.1,0,4.5,0.7c0.9,0.4,0.9,0.4,0.9,1.4c0,0.7,0,1.3,0,2h-1.1c-0.2-0.5-0.4-0.9-0.7-1.3
		c-0.6-1-1.6-1.6-2.7-1.6c-0.4,0-0.9,0-1.3,0.1C61,36,60.3,37,59.9,38.2c-0.6,1.9-0.5,3.8,0.2,5.6c0.5,1.3,1.5,2.3,3,2.5
		c0.9,0.1,1.7,0.1,2.5-0.4c0.2-0.1,0.3-0.2,0.3-0.5c0-0.7,0-1.4,0-2c0-0.8-0.3-1.1-1-1.2C64.7,42,64.5,42,64.3,42"/>
	<path class="st0" d="M99.9,18.2h12.3c0.1,1.3,0.2,2.6,0.3,3.9c-0.3,0-0.6,0-0.9,0c-0.1,0-0.2-0.1-0.2-0.2c-0.2-0.4-0.4-0.8-0.6-1.3
		c-0.4-0.9-1-1.4-2-1.4c-0.4,0-0.8,0-1.3,0c0,0.1,0,0.2,0,0.3c0,3.1,0,6.1,0,9.2c0,0.9,0.3,1.2,1.1,1.3c0.2,0,0.4,0,0.6,0.1V31h-6.3
		v-0.9c0.2,0,0.4-0.1,0.7-0.1c0.8-0.1,1.1-0.4,1.1-1.2s0-1.7,0-2.5v-6.7v-0.4c-1,0-2-0.2-2.8,0.7c-0.2,0.3-0.4,0.6-0.6,0.9
		c-0.1,0.2-0.2,0.4-0.3,0.6c-0.4,0.7-0.5,0.8-1.3,0.6C99.7,20.7,99.8,19.5,99.9,18.2"/>
	<path class="st0" d="M95.3,43.3c-0.2,1.3-0.4,2.6-0.7,4H83.7v-0.9c0.2,0,0.4-0.1,0.6-0.1c0.8-0.1,1.1-0.4,1.1-1.2
		c0-2.2,0-4.3,0-6.5c0-0.6,0-1.3,0-1.9c0-0.9-0.3-1.2-1.1-1.2c-0.2,0-0.4,0-0.6-0.1v-0.9h5.9v0.9c-0.2,0-0.5,0.1-0.7,0.1
		c-0.7,0.1-1,0.4-1,1.1c0,0.8,0,1.5,0,2.3c0,2,0,4,0,6.1c0,0.9,0.4,1.2,1.2,1.3c0.7,0,1.4,0,2.1,0s1.3-0.4,1.6-0.9
		c0.4-0.5,0.7-1.1,1-1.7c0.1-0.2,0.2-0.2,0.4-0.2C94.7,43.3,95,43.3,95.3,43.3"/>
	<path class="st0" d="M92.8,19.1v-0.9h5.9v0.9c-0.2,0-0.4,0.1-0.6,0.1c-0.7,0.1-1,0.4-1,1.1s0,1.4,0,2.1c0,2.1,0,4.3,0,6.4
		c0,0.9,0.3,1.1,1.1,1.2c0.2,0,0.4,0,0.5,0.1V31h-5.9v-0.9c0.2,0,0.5-0.1,0.7-0.1c0.6-0.1,0.9-0.4,0.9-1c0-0.4,0-0.8,0-1.2
		c0-2.4,0-4.9,0-7.3c0-1.1-0.4-1.3-1.1-1.3C93.2,19.1,93,19.1,92.8,19.1"/>
	<path class="st0" d="M23.4,9l-1.1,2.1l-3.6,7.1l3.6,7.1l-1.1,2.1l-4.7-9.2L21.2,9l1.1-2.1l1.1-2.1l1.1,2.1L23.4,9z M26,18.2
		l-2.5,4.9l-2.6-4.9l2.5-4.9L26,18.2z M44.4,18.2h-2.2l0,0L29.3,43.1l-4.8-9.3l1.1-2.1l3.7,7.1L40,18.2h-0.4h-1.8l-1.3,2.5
		l-7.2,13.9l-2.6-5l5-9.7l0,0c0-0.1,0.1-0.2,0.1-0.2l0,0c0.4-0.7,0.7-1.4,0.7-1.4s-0.3-0.6-0.5-1.1l0,0L26.7,6.8l-1.1-2.1l-1.1-2.1
		l-1.1-2.1l-1.1,2.1l-1.1,2.1l-1.1,2.1l-5.2,10.3l0,0l-0.6,1.1l0.9,1.7l0,0l5,9.7l-2.6,5l-7.1-13.8c-1-2.2-1.1-2.6-1.1-2.6H6.9
		l10.6,20.6l3.7-7.2l1.1-2.1l1.1-2.1l1.1-2.1l3.6-7.1l-3.6-7.1L25.6,9l4.7,9.2l-4.7,9.2l-1.1,2.1l-1.1,2.1l-1.1,2.1L17.5,43
		L4.7,18.2l0,0l0,0H2.5H1.9V20h0.3c0.8,0,1.5,0.4,1.9,1.1l0,0l13.5,26.3L23.5,36l5.9,11.4l13.4-26l0,0l0,0c0.4-0.9,1.3-1.4,2.3-1.4
		l0,0v-1.8C45.1,18.2,44.4,18.2,44.4,18.2z"/>
</g>
</svg>
