<svg version="1.1" id="Layer_1" xmlns="http://www.w3.org/2000/svg" x="0" y="0" viewBox="0 0 127 48" xml:space="preserve"><style>.st0{fill-rule:evenodd;clip-rule:evenodd;fill:#212322}</style><path class="st0" d="M72.1 19h.1v-1h-4.4v1.1c.4.1.7.1 1.1.2.4 0 .6.3.5.7 0 .2-.1.5-.2.8L67.7 25c-.3.9-.7 1.9-1 2.8 0-.2-.1-.2-.1-.3-.9-2.2-1.7-4.4-2.5-6.7-.1-.3-.2-.5-.2-.8-.1-.5.1-.7.5-.8.3-.1.6-.1 1-.2v-.7h-5.8v1c.7 0 1.1.4 1.3 1.1.1.5.3.9.5 1.4.1.2.1.4 0 .6-.6 1.5-1.1 2.9-1.7 4.4-.1.3-.2.7-.4 1.1 0-.2-.1-.3-.1-.4-.5-1.5-1.1-2.9-1.6-4.3-.4-1-.8-2-1.1-3-.2-.7 0-1 .7-1.1.2 0 .5-.1.8-.1v-1h-6v1c.6.1 1 .4 1.4 1 1.4 3.6 2.9 7.3 4.4 11 .3.7.3.7 1.1.7.2 0 .3-.1.4-.3.6-1.7 1.3-3.5 2-5.2.3-.8.6-1.7 1-2.6 1 2.8 2.1 5.4 3.1 8.1h.8c.2 0 .3-.1.4-.3 1.4-3.8 2.8-7.5 4.2-11.3.3-.6.6-1 1.3-1.1zM83.9 30.4c-.3 0-.6.1-.9.1v1h6.3v-.9c-.2 0-.4-.1-.6-.1-.9-.1-1.2-.4-1.2-1.3v-8.8c0-.9.3-1.2 1.1-1.3.3 0 .5-.1.7-.1v-.9h-6.2v1h.4c1.1.2 1.3.4 1.3 1.5v3.5h-6.6v-4c.1-.7.4-.9 1-1 .2 0 .5-.1.7-.1v-1h-6.3v1c.2.1.3.1.5.1.8 0 1.2.3 1.2 1.4v9.2c0 .4-.3.7-.7.8-.4.1-.7.1-1 .2v.9h6.3v-1c-.2-.1-.4-.1-.6-.1-.8-.1-1.1-.5-1.1-1.3v-4h6.6c0 1.5 0 2.9-.1 4.3 0 .5-.3.8-.8.9zM110.3 35.2c-1.1-.6-2.3-.9-3.6-.9h-8.1v1c.2 0 .4 0 .4-.2 1.1.2 1.3.4 1.3 1.5v9c-.1.5-.3.8-.8.9-.3 0-.6.1-.9.1v1h7.4c.6 0 1.1 0 1.7-.1 2.3-.4 4-1.5 4.9-3.6.7-1.4.8-3 .6-4.5-.3-1.8-1.2-3.3-2.9-4.2zm-.3 8.5c-.5 1.7-1.9 2.8-3.7 2.9-.8 0-1.6 0-2.3-.1-.5-.1-.8-.4-.8-.9V35.4c1 .1 2.1.1 3.1.2.4 0 .8.1 1.2.3 1.5.6 2.2 1.8 2.6 3.3.3 1.5.3 3-.1 4.5zM78.3 34.7c-1.2-.5-2.4-.6-3.6-.5-1.7.1-3.1.7-4.3 1.9-1.5 1.4-2 3.2-2.1 5.2 0 .5.1 1 .2 1.6.5 2.2 1.7 3.8 3.7 4.7 1.2.5 2.4.6 3.7.5 1.7-.2 3.2-.8 4.4-2.1 1.8-1.9 2.3-4.2 1.8-6.6-.5-2.2-1.7-3.8-3.8-4.7zm.4 9.8c-.4 1.1-1.1 1.9-2.3 2.1-1.6.3-3-.3-3.9-1.7-.8-1.3-1.1-2.7-1.1-4 0-1.4.2-2.7.9-3.9 1.1-2.1 3.8-1.9 5.1-.8 1 .9 1.5 2 1.7 3.3.3 1.7.2 3.4-.4 5zM125.8 27.8c-.2-.1-.3 0-.4.2-.3.4-.7.9-1 1.3-.4.5-1 .9-1.8.9h-2.5c-.9 0-1.3-.4-1.3-1.3v-3.8h2.9c.6.1.9.4 1.1.9.1.3.1.6.2.8h1v-4.4h-1c-.1.2-.1.4-.2.6-.2.7-.5 1-1.3 1h-2.7v-4.9h3.7c.8.1 1.3.4 1.7 1 .2.4.4.7.6 1.1.1.1.1.2.2.2h.9V18h-11.6v1h.5c1 .2 1.2.4 1.2 1.4V29.3c0 .6-.2 1-.8 1.1-.3 0-.6.1-.9.1v1H126c.2-1.2.4-2.4.6-3.7h-.8zM60.1 42.3c.2 0 .4.1.5-.1.8.1 1.1.4 1.1 1.2v2.2c0 .2-.1.4-.3.5-.9.5-1.8.5-2.7.4-1.5-.2-2.5-1.2-3.1-2.6-.7-1.9-.8-3.9-.2-5.9.4-1.3 1.2-2.4 2.6-2.7.4-.1.9-.1 1.4-.1 1.3.1 2.3.6 2.9 1.7.3.4.5.9.7 1.4h1.1v-2.1c0-1 0-1-.9-1.4-1.5-.7-3.1-.9-4.7-.7-1.6.2-3.1.8-4.3 1.9-1.5 1.4-2.1 3.3-2.1 5.4 0 2.9 1.8 5.3 4.6 6.1.7.3 1.5.4 2.3.4 1.9.1 3.7-.3 5.4-1.2.1-.1.2-.2.2-.4v-2.8c0-.8.3-1.1 1.1-1.2.2 0 .4-.1.6-.1v-.9h-6.2v1zM100.4 21.3c.1-.3.2-.5.3-.7l.6-.9c.8-.9 1.9-.7 3-.7v10.1c0 .8-.3 1.2-1.1 1.3-.2 0-.5.1-.7.1v.9h6.5v-.9c-.2 0-.4-.1-.6-.1-.9-.1-1.2-.4-1.2-1.3v-10h1.3c1 .1 1.7.6 2.1 1.5.2.4.5.9.7 1.3 0 .1.1.2.2.2h1c-.1-1.4-.2-2.7-.3-4.1H99.3c-.1 1.4-.2 2.7-.3 3.9.9.2 1 .2 1.4-.6zM95.2 43.7c-.4.6-.7 1.2-1.1 1.8-.4.6-.9 1-1.7 1h-2.2c-.9 0-1.3-.4-1.3-1.3v-8.8c0-.7.3-1 1-1.1.2 0 .5-.1.7-.1v-1h-6.2v1c.2.1.4.1.6.1.8 0 1.1.4 1.1 1.3v8.9c0 .8-.3 1.1-1.1 1.2-.2 0-.4.1-.6.1v1h11.4c.2-1.4.5-2.8.7-4.2-.4 0-.7 0-.9-.1-.2-.1-.3 0-.4.2zM91.1 19c.2 0 .4.1.6.1.8.1 1.2.3 1.2 1.4v9c0 .6-.4.9-1 1-.3 0-.5.1-.8.1v1h6.3v-1c-.2-.1-.4-.1-.6-.1-.9-.1-1.2-.4-1.2-1.3v-8.9c0-.8.3-1.1 1.1-1.2.2 0 .5-.1.7-.1v-1h-6.3v1zM41.4 18.1L28.3 43.4 23.5 34l1.1-2.2 3.7 7.3 10.8-21h-2.2l-1.3 2.5-7.3 14.1-2.6-5.1 5-9.8c0-.1.1-.2.1-.2.4-.7.7-1.5.7-1.5s-.3-.6-.5-1.1L25.7 6.5l-1.1-2.2-1.1-2.2L22.4 0l-1.1 2.2-1.1 2.2L19 6.5 13.6 17l-.6 1.1.9 1.7 5 9.8-2.6 5.1-7.2-14c-1-2.3-1.2-2.6-1.2-2.6H5.6l10.8 21 3.7-7.3 1.1-2.2 1.1-2.2 1.1-2.2 3.7-7.2-3.7-7.2 1.1-2.2 4.8 9.4-4.8 9.4-1.1 2.2-1.1 2.2-1.1 2.2-4.8 9.5-13-25.4H.5v1.8h.3c.8 0 1.5.4 1.9 1.1l13.7 26.7 6-11.6 6 11.6L42 21.3c.4-.9 1.3-1.4 2.3-1.4v-1.8H41.4zm-16.5 0l-2.6 5-2.6-5 2.6-5 2.6 5zm-2.5-9.4l-1.1 2.2-3.7 7.2 3.7 7.2-1.1 2.2-4.8-9.4 4.8-9.4 1.1-2.2 1.1-2.2 1.1 2.2-1.1 2.2z"/></svg>