<?xml version="1.0" encoding="utf-8"?>
<!-- Generator: Adobe Illustrator 24.2.0, SVG Export Plug-In . SVG Version: 6.00 Build 0)  -->
<svg version="1.1" id="Layer_1" xmlns="http://www.w3.org/2000/svg" xmlns:xlink="http://www.w3.org/1999/xlink" x="0px" y="0px"
	 viewBox="0 0 24 36" style="enable-background:new 0 0 24 36;" xml:space="preserve">
<style type="text/css">
	.st0{opacity:0.2;fill-rule:evenodd;clip-rule:evenodd;fill:#0032A0;enable-background:new    ;}
	.st1{fill:#0032A0;}
</style>
<path class="st0" d="M21,33H3c-0.6,0-1,0.4-1,1s0.4,1,1,1h18c0.6,0,1-0.4,1-1S21.6,33,21,33z"/>
<g>
	<path class="st1" d="M10.5,8.4v-4C10.5,4.2,10.3,4,10,4C9.9,4,9.8,4,9.7,4.1l-7.5,7.1C2,11.4,2,11.7,2.1,11.9l0,0L9.7,19
		c0.2,0.2,0.5,0.2,0.6,0c0.1-0.1,0.1-0.2,0.1-0.3v-4c8-0.1,7,4.3,8.7,19.1c0.1,0.2,0.4,0.3,0.6,0.2c0.1-0.1,0.2-0.2,0.2-0.4
		C21.1,19.6,22,8.4,10.5,8.4z"/>
</g>
</svg>
