<?xml version="1.0" encoding="utf-8"?>
<!-- Generator: Adobe Illustrator 24.2.0, SVG Export Plug-In . SVG Version: 6.00 Build 0)  -->
<svg version="1.1" id="Layer_1" xmlns="http://www.w3.org/2000/svg" xmlns:xlink="http://www.w3.org/1999/xlink" x="0px" y="0px"
	 viewBox="0 0 24 36" style="enable-background:new 0 0 24 36;" xml:space="preserve">
<style type="text/css">
	.st0{opacity:0.2;fill:#4285F4;}
	.st1{fill:#1A73E8;}
	.st2{fill:#EA4335;}
	.st3{fill:#4285F4;}
	.st4{fill:#FBBC04;}
	.st5{fill:#34A853;}
</style>
<path id="Path" class="st0" d="M12,24.2c-5.3,0-9.6,1.6-9.6,3.6c0,0.5,0.2,0.9,0.7,1.3l0.2,0.2c0.2,0.2,0.4,0.3,0.6,0.4l0.2,0.1
	L12,35l8-5.3c0.2-0.1,0.4-0.2,0.6-0.4l0.1-0.1l0.1-0.1c0.5-0.4,0.8-0.8,0.8-1.3v-0.1C21.6,25.8,17.3,24.2,12,24.2z"/>
<g>
	<path class="st1" d="M15.6,1.6C14.5,1.2,13.2,1,12,1C8.4,1,5.1,2.6,2.9,5.2l5.6,4.7L15.6,1.6z"/>
	<path class="st2" d="M2.9,5.2C1.2,7.3,0.1,10,0.1,12.8c0,2.2,0.4,4,1.2,5.6l7.2-8.6C8.5,9.9,2.9,5.2,2.9,5.2z"/>
	<path class="st3" d="M12,8.3c2.5,0,4.5,2,4.5,4.5c0,1.1-0.4,2.1-1.1,2.9c0,0,3.6-4.3,7.1-8.4c-1.4-2.8-3.9-4.9-6.9-5.8L8.5,9.9
		C9.4,9,10.6,8.3,12,8.3"/>
	<path class="st4" d="M12,17.4c-2.5,0-4.5-2-4.5-4.5c0-1.1,0.4-2.1,1.1-2.9l-7.2,8.6c1.2,2.7,3.3,4.9,5.4,7.7l8.8-10.4
		C14.6,16.8,13.4,17.4,12,17.4"/>
	<path class="st5" d="M15.3,29c4-6.2,8.6-9,8.6-16.2c0-2-0.5-3.8-1.3-5.5L6.7,26.2c0.7,0.9,1.4,1.9,2,2.9c2.4,3.7,1.7,5.9,3.3,5.9
		S12.9,32.8,15.3,29"/>
</g>
</svg>
