<?xml version="1.0" encoding="utf-8"?>
<!-- Generator: Adobe Illustrator 24.2.0, SVG Export Plug-In . SVG Version: 6.00 Build 0)  -->
<svg version="1.1" id="Layer_1" xmlns="http://www.w3.org/2000/svg" xmlns:xlink="http://www.w3.org/1999/xlink" x="0px" y="0px"
	 viewBox="0 0 14 20" style="enable-background:new 0 0 14 20;" xml:space="preserve">
<style type="text/css">
	.st0{fill-rule:evenodd;clip-rule:evenodd;fill:#FFFFFF;stroke:#FFFFFF;}
</style>
<path class="st0" d="M11.2,2.8C10.2,1.7,8.7,1,7,1S3.8,1.7,2.8,2.8C1.7,3.8,1,5.3,1,7c0,1.5,0.5,2.8,1.4,3.9L7,19l4.6-8.1l0.2-0.2
	C12.5,9.6,13,8.4,13,7C13,5.3,12.3,3.8,11.2,2.8z M9,9C8.5,9.5,7.8,9.8,7,9.8S5.5,9.5,5,9C4.5,8.5,4.2,7.8,4.2,7
	c0-0.8,0.3-1.5,0.8-2c0.5-0.5,1.2-0.8,2-0.8S8.5,4.5,9,5c0.5,0.5,0.8,1.2,0.8,2C9.8,7.8,9.5,8.5,9,9z"/>
</svg>
