<?xml version="1.0" encoding="utf-8"?>
<!-- Generator: Adobe Illustrator 24.2.0, SVG Export Plug-In . SVG Version: 6.00 Build 0)  -->
<svg version="1.1" id="Layer_1" xmlns="http://www.w3.org/2000/svg" xmlns:xlink="http://www.w3.org/1999/xlink" x="0px" y="0px"
	 viewBox="0 0 48 48" style="enable-background:new 0 0 48 48;" xml:space="preserve">
<style type="text/css">
	.st0{fill:#212322;}
</style>
<g>
	<path class="st0" d="M46,21c-0.6,0-1-0.4-1-1c0-9.4-7.6-17-17-17c-0.6,0-1-0.4-1-1s0.4-1,1-1c10.5,0,19,8.5,19,19
		C47,20.6,46.6,21,46,21z"/>
	<path class="st0" d="M38,21c-0.6,0-1-0.4-1-1c0-5-4-9-9-9c-0.6,0-1-0.4-1-1s0.4-1,1-1c6.1,0,11,4.9,11,11C39,20.6,38.6,21,38,21z"
		/>
	<path class="st0" d="M31.4,29.2l-3.6,4.5c-5.6-3.3-10.2-7.9-13.4-13.4l4.5-3.6c1.1-0.9,1.4-2.3,0.9-3.6l-4.1-9.2
		c-0.6-1.4-2.1-2.1-3.6-1.7l-7.8,2C2.8,4.5,1.8,6,2,7.5c2.8,20,18.5,35.7,38.5,38.5c1.5,0.2,3-0.8,3.4-2.3l2-7.8
		c0.4-1.4-0.3-2.9-1.7-3.6L35,28.3C33.7,27.7,32.2,28.1,31.4,29.2z"/>
</g>
</svg>
