<?xml version="1.0" encoding="utf-8"?>
<!-- Generator: Adobe Illustrator 24.2.0, SVG Export Plug-In . SVG Version: 6.00 Build 0)  -->
<svg version="1.1" id="Layer_1" xmlns="http://www.w3.org/2000/svg" xmlns:xlink="http://www.w3.org/1999/xlink" x="0px" y="0px"
	 viewBox="0 0 14 20" style="enable-background:new 0 0 14 20;" xml:space="preserve">
<style type="text/css">
	.st0{fill:#FFFFFF;}
</style>
<g>
	<path class="st0" d="M12.6,8.1H11c-0.2,1.2-0.8,2.2-1.8,2.8c-1,0.7-2.3,1-4,1l7.3,6H8.8l-7.3-6.1V10h3.4c1.1,0,2-0.2,2.5-0.4
		c0.5-0.3,0.9-0.8,1.1-1.4h-7V6h6.9C8.2,5.3,7.9,4.8,7.4,4.5C7,4.1,6.2,4,5.3,4H1.4V2h11.1v2h-2.4c0.4,0.4,0.7,1.2,0.8,2h1.5v2.1
		H12.6z"/>
</g>
</svg>
