<?xml version="1.0" encoding="utf-8"?>
<!-- Generator: Adobe Illustrator 24.2.0, SVG Export Plug-In . SVG Version: 6.00 Build 0)  -->
<svg version="1.1" id="Layer_1" xmlns="http://www.w3.org/2000/svg" xmlns:xlink="http://www.w3.org/1999/xlink" x="0px" y="0px"
	 viewBox="0 0 24 36" style="enable-background:new 0 0 24 36;" xml:space="preserve">
<style type="text/css">
	.st0{opacity:0.2;fill-rule:evenodd;clip-rule:evenodd;fill:#0A4FFD;}
	.st1{fill:#0A4FFD;}
</style>
<path class="st0" d="M19,33H5c-0.6,0-1,0.4-1,1s0.4,1,1,1h14c0.6,0,1-0.4,1-1S19.6,33,19,33z"/>
<path class="st1" d="M11.3,20.6c3.8-0.9,6-3.5,6.6-7.6H20V9h-2.1c-0.2-1.5-0.7-2.9-1.3-4H20V1H4v4h4h0.3c3.3,0.1,5.1,1.3,5.6,4H4v4
	h9.8c-0.5,2.8-2.3,4-5.8,4H7.9H4v4h2.8l7,13h4.5l-7.1-13.3L11.3,20.6z"/>
</svg>
