<?xml version="1.0" encoding="utf-8"?>
<!-- Generator: Adobe Illustrator 24.2.0, SVG Export Plug-In . SVG Version: 6.00 Build 0)  -->
<svg version="1.1" id="Layer_1" xmlns="http://www.w3.org/2000/svg" xmlns:xlink="http://www.w3.org/1999/xlink" x="0px" y="0px"
	 viewBox="0 0 24 36" style="enable-background:new 0 0 24 36;" xml:space="preserve">
<style type="text/css">
	.st0{opacity:0.2;fill-rule:evenodd;clip-rule:evenodd;fill:#31BF7D;}
	.st1{fill-rule:evenodd;clip-rule:evenodd;fill:#31BF7D;}
	.st2{fill-rule:evenodd;clip-rule:evenodd;fill:#FFFFFF;}
</style>
<path class="st0" d="M21,33H3c-0.6,0-1,0.4-1,1s0.4,1,1,1h18c0.6,0,1-0.4,1-1S21.6,33,21,33z"/>
<g>
	<path id="Combined-Shape" class="st1" d="M21.6,33c0,0.5-0.4,1-1,1c-0.2,0-0.5-0.1-0.6-0.2l-4.6-4c-0.2,0-0.3,0-0.5,0H9.1
		c-3.7,0-6.7-3-6.7-6.7V7.7C2.4,4,5.4,1,9.1,1h5.8c3.7,0,6.7,3,6.7,6.7V33z"/>
	<circle id="Oval_1_" class="st2" cx="7.2" cy="15.4" r="1"/>
	<circle id="Oval-Copy-6" class="st2" cx="12" cy="15.4" r="1"/>
	<circle id="Oval-Copy-7" class="st2" cx="16.8" cy="15.4" r="1"/>
</g>
</svg>
